<?xml version="1.0" encoding="UTF-8" standalone="no" ?>
<!DOCTYPE svg PUBLIC "-//W3C//DTD SVG 1.1//EN" "http://www.w3.org/Graphics/SVG/1.1/DTD/svg11.dtd">
<svg xmlns="http://www.w3.org/2000/svg" xmlns:xlink="http://www.w3.org/1999/xlink" version="1.1" width="1080" height="1080" viewBox="0 0 1080 1080" xml:space="preserve">
<desc>Created with Fabric.js 5.2.4</desc>
<defs>
</defs>
<rect x="0" y="0" width="100%" height="100%" fill="transparent"></rect>
<g transform="matrix(1 0 0 1 540 540)" id="bf5c2640-bdd3-44d5-88ab-76a273ab7dfd"  >
<rect style="stroke: none; stroke-width: 1; stroke-dasharray: none; stroke-linecap: butt; stroke-dashoffset: 0; stroke-linejoin: miter; stroke-miterlimit: 4; fill: rgb(255,255,255); fill-rule: nonzero; opacity: 1; visibility: hidden;" vector-effect="non-scaling-stroke"  x="-540" y="-540" rx="0" ry="0" width="1080" height="1080" />
</g>
<g transform="matrix(1 0 0 1 540 540)" id="b3e40246-0a35-4516-ab4d-6589e49d9ff3"  >
</g>
<g transform="matrix(0.13 0 0 -0.13 540.31 358.52)"  >
<path style="stroke: none; stroke-width: 1; stroke-dasharray: none; stroke-linecap: butt; stroke-dashoffset: 0; stroke-linejoin: miter; stroke-miterlimit: 4; fill: rgb(244,150,24); fill-rule: nonzero; opacity: 1;" vector-effect="non-scaling-stroke"  transform=" translate(-4702, -5143.64)" d="M 5260 6305 C 5260 5901 5257 5570 5254 5570 C 5251 5570 5230 5585 5208 5604 C 5121 5679 4957 5738 4779 5760 C 4690 5771 4521 5761 4406 5740 C 4319 5723 4174 5674 4095 5634 C 3816 5492 3582 5200 3488 4875 C 3450 4743 3439 4662 3439 4505 C 3439 4351 3450 4266 3485 4146 C 3626 3660 3987 3336 4475 3260 C 4603 3240 4800 3244 4893 3269 C 4981 3292 5109 3350 5193 3403 C 5225 3424 5257 3440 5264 3440 C 5272 3440 5430 3397 5615 3344 C 5800 3291 5953 3250 5955 3252 C 5958 3254 5961 4107 5962 5148 L 5965 7040 L 5613 7040 L 5260 7040 L 5260 6305 z M 4823 5184 C 5029 5137 5183 5013 5280 4817 C 5379 4616 5384 4388 5295 4192 L 5270 4138 L 5335 4002 C 5371 3927 5399 3863 5398 3860 C 5396 3856 5329 3871 5248 3892 L 5101 3932 L 5068 3907 C 4983 3842 4799 3780 4690 3780 C 4610 3780 4496 3810 4402 3856 C 4212 3949 4074 4138 4034 4359 C 4005 4523 4025 4665 4100 4817 C 4240 5101 4533 5249 4823 5184 z" stroke-linecap="round" />
</g>
<g transform="matrix(0.13 0 0 -0.13 100.39 760.03)"  >
<path style="stroke: none; stroke-width: 1; stroke-dasharray: none; stroke-linecap: butt; stroke-dashoffset: 0; stroke-linejoin: miter; stroke-miterlimit: 4; fill: rgb(0,0,0); fill-rule: nonzero; opacity: 1;" vector-effect="non-scaling-stroke"  transform=" translate(-1402.58, -2132.26)" d="M 1280 2924 C 1128 2892 980 2787 902 2657 C 777 2449 774 2130 895 1924 C 937 1852 989 1800 1017 1800 C 1066 1800 1132 1897 1115 1943 C 1112 1950 1100 1960 1087 1965 C 1061 1977 1028 2033 998 2120 C 964 2216 966 2384 1002 2493 C 1065 2683 1201 2774 1420 2773 C 1545 2773 1610 2749 1686 2675 C 1782 2580 1830 2436 1830 2238 C 1830 2040 1775 1807 1695 1665 C 1663 1607 1602 1541 1550 1506 C 1518 1485 1441 1485 1411 1506 C 1357 1545 1355 1556 1352 2060 C 1351 2316 1347 2535 1345 2547 C 1338 2579 1288 2602 1233 2598 L 1188 2595 L 1189 2097 C 1190 1802 1195 1575 1201 1542 C 1219 1445 1262 1385 1340 1344 C 1366 1331 1397 1326 1457 1326 C 1529 1326 1546 1330 1605 1360 C 1756 1437 1903 1654 1960 1887 C 2008 2084 2012 2362 1970 2510 C 1906 2733 1757 2884 1561 2926 C 1479 2943 1365 2943 1280 2924 z" stroke-linecap="round" />
</g>
<g transform="matrix(0.13 0 0 -0.13 649.38 761.32)"  >
<path style="stroke: none; stroke-width: 1; stroke-dasharray: none; stroke-linecap: butt; stroke-dashoffset: 0; stroke-linejoin: miter; stroke-miterlimit: 4; fill: rgb(0,0,0); fill-rule: nonzero; opacity: 1;" vector-effect="non-scaling-stroke"  transform=" translate(-5520, -2122.62)" d="M 5500 2899 C 5162 2866 4940 2605 4940 2243 C 4940 2094 4986 1954 5065 1863 C 5106 1815 5127 1810 5157 1843 C 5211 1901 5226 1978 5188 1995 C 5144 2015 5100 2143 5100 2255 C 5100 2436 5182 2603 5305 2675 C 5438 2754 5635 2768 5752 2709 C 5987 2589 5999 2210 5774 1986 C 5709 1920 5601 1857 5533 1844 L 5500 1838 L 5500 2187 C 5500 2401 5496 2548 5490 2567 C 5484 2583 5466 2604 5451 2613 C 5417 2633 5346 2636 5334 2618 C 5329 2611 5327 2336 5330 1996 L 5335 1387 L 5360 1369 C 5374 1359 5401 1348 5422 1345 C 5451 1339 5462 1342 5479 1359 C 5498 1378 5500 1391 5500 1528 L 5500 1676 L 5553 1689 C 5864 1768 6100 2066 6100 2379 C 6099 2730 5863 2935 5500 2899 z" stroke-linecap="round" />
</g>
<g transform="matrix(0.13 0 0 -0.13 360.61 817.59)"  >
<path style="stroke: none; stroke-width: 1; stroke-dasharray: none; stroke-linecap: butt; stroke-dashoffset: 0; stroke-linejoin: miter; stroke-miterlimit: 4; fill: rgb(0,0,0); fill-rule: nonzero; opacity: 1;" vector-effect="non-scaling-stroke"  transform=" translate(-3354.23, -1700.6)" d="M 3412 2873 C 3399 2871 3367 2847 3340 2822 C 3260 2744 3260 2742 3260 2205 C 3260 1773 3259 1740 3240 1671 C 3197 1517 3136 1452 3079 1499 L 3055 1518 L 3050 1847 C 3047 2027 3043 2176 3042 2178 C 3041 2179 3025 2189 3008 2200 C 2972 2222 2905 2227 2894 2208 C 2890 2202 2888 2097 2889 1976 C 2891 1764 2890 1751 2865 1665 C 2834 1560 2804 1508 2761 1490 C 2735 1479 2726 1480 2705 1494 C 2691 1504 2675 1522 2670 1536 C 2664 1550 2660 1651 2660 1761 C 2660 1879 2656 1969 2650 1981 C 2628 2021 2522 2048 2504 2018 C 2500 2012 2496 1909 2496 1790 L 2495 1574 L 2468 1538 C 2429 1487 2382 1473 2332 1497 C 2277 1524 2256 1574 2257 1676 C 2259 1812 2304 1932 2383 2011 C 2448 2076 2505 2100 2608 2108 C 2702 2116 2709 2121 2696 2176 C 2684 2224 2656 2240 2586 2240 C 2460 2240 2316 2172 2230 2072 C 2052 1864 2044 1489 2216 1380 C 2300 1327 2393 1331 2484 1391 L 2531 1423 L 2558 1398 C 2601 1358 2631 1346 2695 1347 C 2767 1347 2813 1365 2865 1414 C 2892 1440 2906 1447 2909 1438 C 2918 1409 2978 1361 3019 1350 C 3101 1328 3208 1367 3261 1439 L 3283 1470 L 3318 1429 C 3368 1370 3421 1347 3505 1346 C 3564 1346 3583 1350 3627 1374 C 3655 1390 3691 1415 3706 1431 L 3733 1459 L 3779 1410 C 3876 1308 4015 1319 4105 1437 L 4140 1483 L 4140 1348 L 4140 1212 L 4066 1146 C 3933 1027 3880 919 3880 766 C 3880 697 3884 675 3906 631 C 3945 554 3993 525 4085 525 C 4179 525 4226 553 4267 637 L 4295 695 L 4298 939 L 4301 1184 L 4379 1266 C 4469 1361 4518 1432 4566 1534 C 4618 1648 4627 1692 4607 1734 C 4587 1776 4547 1791 4522 1767 C 4514 1758 4492 1709 4474 1659 C 4437 1556 4393 1478 4338 1416 L 4301 1375 L 4300 1772 L 4300 2168 L 4269 2194 C 4246 2213 4227 2220 4195 2220 C 4171 2220 4148 2215 4144 2209 C 4140 2202 4138 2100 4139 1981 C 4142 1736 4132 1676 4076 1574 C 4021 1474 3948 1453 3896 1523 C 3878 1547 3875 1568 3872 1672 C 3868 1806 3886 1938 3926 2078 C 3954 2175 3956 2196 3934 2204 C 3902 2216 3832 2210 3812 2193 C 3777 2162 3729 1954 3710 1750 C 3699 1633 3696 1621 3664 1572 C 3608 1487 3523 1460 3466 1509 C 3434 1536 3420 1585 3420 1670 C 3420 1741 3424 1758 3454 1818 C 3505 1920 3559 2071 3597 2220 C 3626 2331 3633 2380 3637 2493 C 3646 2703 3622 2798 3550 2852 C 3524 2871 3452 2882 3412 2873 z M 3490 2702 C 3498 2687 3505 2627 3508 2569 C 3513 2447 3483 2221 3447 2112 L 3425 2045 L 3422 2140 C 3420 2192 3420 2344 3422 2478 C 3424 2674 3428 2722 3439 2729 C 3459 2742 3475 2733 3490 2702 z M 4135 714 C 4128 674 4098 646 4072 654 C 4042 664 4026 716 4028 792 C 4030 871 4055 944 4102 1004 L 4135 1048 L 4138 896 C 4140 813 4138 731 4135 714 z" stroke-linecap="round" />
</g>
<g transform="matrix(0.13 0 0 -0.13 899.92 762.89)"  >
<path style="stroke: none; stroke-width: 1; stroke-dasharray: none; stroke-linecap: butt; stroke-dashoffset: 0; stroke-linejoin: miter; stroke-miterlimit: 4; fill: rgb(0,0,0); fill-rule: nonzero; opacity: 1;" vector-effect="non-scaling-stroke"  transform=" translate(-7399.05, -2110.86)" d="M 6331 2858 C 6282 2834 6236 2776 6217 2716 C 6208 2685 6205 2532 6205 2105 L 6205 1535 L 6232 1478 C 6264 1409 6319 1366 6396 1350 C 6491 1330 6576 1358 6649 1434 L 6683 1469 L 6710 1432 C 6785 1328 6954 1316 7053 1408 L 7080 1434 L 7096 1412 C 7122 1374 7189 1346 7250 1346 C 7316 1347 7362 1367 7416 1419 L 7456 1459 L 7475 1423 C 7495 1386 7544 1356 7600 1345 C 7678 1331 7787 1383 7844 1462 L 7873 1502 L 7917 1456 C 8058 1308 8307 1306 8464 1450 C 8533 1514 8589 1636 8593 1732 C 8595 1777 8566 1810 8525 1810 C 8493 1810 8476 1785 8452 1705 C 8412 1572 8356 1512 8251 1489 C 8158 1469 8066 1506 8019 1584 L 8001 1614 L 8072 1648 C 8191 1706 8274 1806 8306 1931 C 8336 2048 8311 2155 8242 2208 C 8214 2229 8194 2235 8139 2238 C 8080 2242 8065 2239 8020 2214 C 7880 2138 7796 1953 7802 1731 C 7804 1640 7802 1629 7774 1574 C 7738 1502 7692 1472 7647 1489 C 7632 1495 7615 1511 7610 1525 C 7604 1541 7600 1700 7600 1911 L 7600 2270 L 7814 2270 C 8060 2270 8051 2267 8058 2362 C 8063 2422 8062 2423 8039 2417 C 8026 2414 7922 2408 7808 2404 L 7600 2397 L 7600 2604 L 7600 2812 L 7570 2841 C 7543 2868 7535 2871 7483 2868 C 7427 2865 7425 2864 7429 2840 C 7431 2826 7434 2724 7437 2613 L 7441 2410 L 7331 2410 C 7221 2410 7220 2410 7214 2385 C 7207 2357 7224 2307 7248 2288 C 7256 2281 7301 2273 7349 2270 L 7435 2265 L 7438 2010 C 7440 1762 7440 1752 7415 1665 C 7385 1560 7354 1508 7311 1490 C 7285 1479 7276 1480 7255 1494 C 7241 1504 7225 1522 7220 1536 C 7214 1550 7210 1651 7210 1761 C 7210 1879 7206 1969 7200 1981 C 7178 2022 7072 2048 7053 2018 C 7049 2011 7047 1913 7048 1800 C 7051 1602 7050 1594 7028 1555 C 6996 1500 6943 1474 6895 1490 C 6876 1496 6852 1513 6841 1526 C 6785 1597 6795 1779 6862 1913 C 6922 2034 7022 2098 7164 2109 C 7251 2115 7259 2122 7246 2176 C 7234 2223 7206 2240 7138 2240 C 7011 2240 6903 2192 6804 2094 C 6702 1993 6640 1833 6640 1674 C 6640 1613 6614 1562 6561 1518 C 6520 1483 6480 1475 6436 1494 C 6390 1513 6372 1553 6363 1655 C 6357 1730 6357 1731 6408 1838 C 6574 2190 6636 2612 6547 2790 C 6531 2823 6513 2841 6480 2858 C 6425 2886 6387 2886 6331 2858 z M 6435 2694 C 6451 2661 6454 2635 6454 2535 C 6453 2370 6401 2074 6369 2054 C 6362 2050 6360 2150 6362 2377 C 6364 2642 6368 2710 6379 2724 C 6398 2747 6412 2740 6435 2694 z M 8141 2078 C 8160 2043 8147 1933 8117 1874 C 8090 1821 8005 1736 7986 1743 C 7972 1748 7974 1865 7990 1933 C 8006 1998 8044 2076 8067 2089 C 8097 2106 8128 2102 8141 2078 z" stroke-linecap="round" />
</g>
<g transform="matrix(0.13 0 0 -0.13 313.69 701.86)"  >
<path style="stroke: none; stroke-width: 1; stroke-dasharray: none; stroke-linecap: butt; stroke-dashoffset: 0; stroke-linejoin: miter; stroke-miterlimit: 4; fill: rgb(0,0,0); fill-rule: nonzero; opacity: 1;" vector-effect="non-scaling-stroke"  transform=" translate(-3002.35, -2568.55)" d="M 2941 2683 C 2854 2640 2854 2500 2941 2454 C 3037 2405 3140 2477 3128 2584 C 3122 2637 3100 2666 3053 2686 C 3011 2704 2983 2703 2941 2683 z" stroke-linecap="round" />
</g>
</svg>